<svg width="22" height="22" viewBox="0 0 22 22" fill="none" xmlns="http://www.w3.org/2000/svg">
<path d="M13.5044 10.9972L21.1415 3.3768C21.4759 3.04231 21.6638 2.58865 21.6638 2.11561C21.6638 1.64258 21.4759 1.18892 21.1415 0.85443C20.807 0.519944 20.3534 0.332031 19.8805 0.332031C19.4075 0.332031 18.9539 0.519944 18.6195 0.85443L11.0002 8.49258L3.38086 0.85443C3.04642 0.519944 2.59282 0.332031 2.11986 0.332031C1.64689 0.332031 1.19329 0.519944 0.858852 0.85443C0.524413 1.18892 0.336527 1.64258 0.336527 2.11561C0.336527 2.58865 0.524413 3.04231 0.858852 3.3768L8.49592 10.9972L0.858852 18.6176C0.692385 18.7827 0.560256 18.9792 0.470088 19.1956C0.37992 19.4121 0.333496 19.6443 0.333496 19.8787C0.333496 20.1132 0.37992 20.3454 0.470088 20.5619C0.560256 20.7783 0.692385 20.9748 0.858852 21.1399C1.02396 21.3064 1.22039 21.4386 1.43682 21.5288C1.65325 21.6189 1.88539 21.6654 2.11986 21.6654C2.35432 21.6654 2.58646 21.6189 2.80289 21.5288C3.01932 21.4386 3.21575 21.3064 3.38086 21.1399L11.0002 13.5018L18.6195 21.1399C18.7846 21.3064 18.981 21.4386 19.1974 21.5288C19.4139 21.6189 19.646 21.6654 19.8805 21.6654C20.1149 21.6654 20.3471 21.6189 20.5635 21.5288C20.7799 21.4386 20.9764 21.3064 21.1415 21.1399C21.3079 20.9748 21.4401 20.7783 21.5302 20.5619C21.6204 20.3454 21.6668 20.1132 21.6668 19.8787C21.6668 19.6443 21.6204 19.4121 21.5302 19.1956C21.4401 18.9792 21.3079 18.7827 21.1415 18.6176L13.5044 10.9972Z" fill="#97A0AF"/>
</svg>
